<svg class="svg-icon" style="width: 1em; height: 1em;vertical-align: middle;fill: currentColor;overflow: hidden;" viewBox="0 0 1024 1024" version="1.1" xmlns="http://www.w3.org/2000/svg"><path d="M701.9 614.7c46.9-7.9 91.5-29.5 127.1-65.1 81.7-81.7 90-210.4 26.5-307 6.2-7 12.2-14.3 17.8-22.2 0.1-0.1 0.2-0.3 0.3-0.4 10.2-15.1 23.9-39.4 25.8-75.5 0.3-5.1-1.6-10-5.2-13.7l-1-1c-3.6-3.6-8.6-5.5-13.7-5.2-36.1 1.9-60.4 15.6-75.5 25.8-0.1 0.1-0.3 0.2-0.4 0.3-7.8 5.5-15 11.5-22 17.6-96.7-64.3-226.1-56.2-308.1 25.8-36.2 36.2-57.9 81.5-65.4 129.2-46.9 7.9-91.4 29.4-127 65-81.3 81.3-89.9 209.1-27.4 305.6L129.9 817.7c-7 7-7 18.4 0 25.5l50.9 50.9c7 7 18.4 7 25.5 0l123.6-123.6c96.6 63.3 225.1 55 306.7-26.7 36.1-36.1 57.8-81.4 65.3-129.1z m86.7-404c11.9-11.1 23.1-21.6 35.7-30.5 8.9-6 20.5-12.7 36.1-16.5-3.8 15.6-10.5 27.2-16.5 36.1-9 12.6-19.4 23.8-30.5 35.7-3 3.3-6.1 6.5-9.1 9.8L772 277.5c-3.8-4.7-7.7-9.2-12-13.4-4.3-4.3-8.8-8.3-13.4-12l32.3-32.3c3.1-3 6.4-6.1 9.7-9.1zM499 219.5c67.6-67.6 173.4-75.8 255.2-26.1l-0.6 0.6-38.2 38.2c-2.1-1-4.2-2-6.4-3-9.1-4-19.7 0.2-23.7 9.3-4 9.1 0.2 19.7 9.3 23.7 14.9 6.5 28.3 15.6 39.8 27.2 11.6 11.6 20.7 25 27.2 39.8 0.9 2.1 2.2 4 3.8 5.6 5.1 5.1 12.9 6.8 19.9 3.8 9.1-4 13.3-14.6 9.3-23.7-0.9-2.2-1.9-4.3-3-6.4l38.2-38.2c0.1-0.1 0.2-0.2 0.3-0.4 49 81.7 40.6 186.8-26.7 254.1-27.8 27.8-62.2 45.6-98.6 53.4-11.8 2.5-23.9 4-36 4.4-40.8 1.5-82.5-9-119.5-31.1l38.6-38.6c2.1 1 4.2 2 6.4 3 9.1 4 19.7-0.2 23.7-9.4 4-9.1-0.2-19.7-9.4-23.7-14.9-6.5-28.3-15.6-39.9-27.2-11.6-11.6-20.7-25-27.2-39.9-4-9.1-14.6-13.3-23.7-9.3s-13.3 14.6-9.3 23.7c0.9 2.2 1.9 4.3 3 6.4l-38.8 38.8c-22.3-36.7-33-78.1-31.9-118.8 0.3-12.1 1.7-24.2 4.2-36 7.8-36.9 25.7-71.9 54-100.2z m32.5 247.6c3.8 4.7 7.7 9.2 12 13.4 4.3 4.3 8.8 8.3 13.4 12l-37 37c-4.7-4-9.3-8.1-13.8-12.6-4.1-4.1-8-8.4-11.8-12.8l37.2-37zM168.1 830.4L335.5 663c3.8 4.7 7.7 9.2 12 13.4 4.3 4.3 8.8 8.3 13.4 12L193.6 855.9l-25.5-25.5z m187.8-85.9l36.2-36.2c2.1 1 4.2 2 6.4 3 9.1 4 19.7-0.2 23.7-9.4 4-9.1-0.2-19.7-9.4-23.7-14.9-6.5-28.3-15.6-39.9-27.2-11.6-11.6-20.7-25-27.2-39.9-4-9.1-14.6-13.3-23.7-9.3s-13.3 14.6-9.3 23.7c0.9 2.2 1.9 4.3 3 6.4l-35.9 35.9c-49-81.7-40.6-186.8 26.7-254.1 27.8-27.8 62.2-45.6 98.6-53.4-0.3 65.1 24.9 131.4 75.6 182 51.2 51.2 118.3 76.5 184.2 75.6-7.6 37.1-25.5 72.1-53.7 100.4-67.7 67.7-173.5 75.9-255.3 26.2z"  /></svg>