<?xml version="1.0" encoding="utf-8"?>
<!-- Svg Vector Icons : http://www.onlinewebfonts.com/icon -->
<!DOCTYPE svg PUBLIC "-//W3C//DTD SVG 1.1//EN" "http://www.w3.org/Graphics/SVG/1.1/DTD/svg11.dtd">
<svg version="1.1" xmlns="http://www.w3.org/2000/svg" xmlns:xlink="http://www.w3.org/1999/xlink" x="0px" y="0px" viewBox="0 0 1000 1000" enable-background="new 0 0 1000 1000" xml:space="preserve">
<metadata> Svg Vector Icons : http://www.onlinewebfonts.com/icon </metadata>
<g><g transform="translate(0.000000,511.000000) scale(0.100000,-0.100000)"><path d="M4749.1,4978.8c-543.7-137.9-895.5-683.6-791.5-1231.3c28-147.9,137.9-367.8,239.9-483.7c46-52,81.9-97.9,77.9-101.9c-4-4-42-22-83.9-40c-139.9-58-405.8-245.9-547.7-385.8c-333.8-335.8-535.7-793.5-549.7-1247.2l-6-181.9l91.9-83.9c121.9-109.9,285.8-195.9,539.7-279.8c399.8-133.9,717.6-177.9,1277.2-177.9c559.7,0,877.5,44,1277.2,177.9c253.8,83.9,417.7,169.9,539.7,279.8l91.9,83.9l-4,175.9c-16,647.6-415.7,1279.2-1009.4,1593c-70,38-139.9,72-155.9,78c-22,6-6,36,57.9,107.9c483.7,549.7,261.9,1417.1-431.7,1679C5190.9,5006.8,4923,5022.8,4749.1,4978.8z M5292.8,4519.1c119.9-66,219.9-167.9,287.8-293.8c38-71.9,46-115.9,46-275.8c0-171.9-6-199.9-58-295.8c-117.9-211.9-295.8-325.8-531.7-339.8c-261.8-14-481.7,107.9-609.6,337.8c-54,97.9-60,123.9-60,297.8c0,157.9,8,203.9,46,273.8c133.9,253.8,335.8,371.8,613.6,359.8C5158.9,4577.1,5206.9,4567.1,5292.8,4519.1z M5378.8,2840.2c265.8-72,495.7-209.9,693.6-417.7c231.9-245.9,363.8-515.7,411.8-845.5l12-85.9l-99.9-50c-317.8-161.9-707.6-243.9-1239.2-263.8c-621.6-22-1167.3,68-1543.1,257.9c-64,30-115.9,66-115.9,77.9c0,10,14,89.9,32,173.9c119.9,579.6,575.6,1041.4,1159.3,1171.3C4855.1,2896.1,5208.9,2886.1,5378.8,2840.2z"/><path d="M4855.1,253.7l-58-58v-637.6v-635.6l-529.7-529.7c-347.8-347.8-531.7-545.7-539.7-581.6c-8-30,2-85.9,18-125.9c36-86,139.9-139.9,227.9-119.9c34,8,223.9,181.9,539.7,495.7l483.7,479.7l485.7-481.7c293.8-293.8,503.7-487.7,535.7-495.7c141.9-34,283.8,117.9,239.9,255.8c-14,42-201.9,243.9-541.7,583.7l-519.7,519.7v635.6v637.6l-58,58c-46,46-75.9,58-141.9,58C4931,311.7,4901.1,299.7,4855.1,253.7z"/><path d="M1806.9-555.8c-377.8-72-719.6-391.8-817.5-761.5c-42-165.9-38-417.7,10-571.6c44-143.9,151.9-337.8,241.9-429.7l58-60l-103.9-50C577.7-2714.4,150-3342.1,106-4025.7c-12-185.9-10-191.9,44-255.8c113.9-135.9,471.7-305.8,809.5-387.8c579.6-137.9,1363.2-151.9,1948.8-34c407.7,82,805.5,251.9,941.4,403.8c64,70,68,82,68,219.9c-2,651.6-439.7,1333.2-1049.4,1635c-72,34-129.9,70-129.9,77.9c0,8,20,30,44,52c77.9,70,195.9,273.8,239.9,417.7c81.9,265.8,46,603.6-89.9,829.5C2698.4-675.7,2252.7-471.8,1806.9-555.8z M2268.7-1005.5c129.9-58,275.8-201.9,333.8-329.8c62-139.9,64-381.8,2-515.7c-107.9-233.8-341.8-383.8-597.6-383.8c-317.8,2-569.6,217.9-629.6,537.7c-56,307.8,137.9,619.6,447.7,721.6C1940.9-937.5,2146.7-951.5,2268.7-1005.5z M2402.6-2708.4c277.8-76,565.6-253.9,729.6-451.7c201.9-241.8,337.8-537.7,359.8-787.5l12-111.9l-127.9-60c-173.9-84-407.7-153.9-647.6-197.9c-251.9-46-1129.3-54-1369.2-12c-253.8,46-511.7,119.9-679.6,195.9c-141.9,66-159.9,80-159.9,127.9c0,105.9,81.9,373.8,163.9,539.7c115.9,233.9,391.8,513.7,625.6,633.6C1667-2648.5,2032.8-2606.5,2402.6-2708.4z"/><path d="M7801.3-549.8c-575.6-95.9-975.4-673.6-857.5-1237.2c38-183.9,123.9-363.8,231.8-483.7c44-52,80-97.9,80-103.9c0-6-40-28-89.9-50c-163.9-72-377.8-225.9-531.7-379.8c-341.8-343.8-525.7-745.5-551.7-1203.3l-12-211.9l74-80c135.9-151.9,531.7-321.8,941.4-403.8c675.6-133.9,1563-97.9,2142.7,90c229.9,74,481.7,203.9,581.6,301.8l90,84l-12,185.9c-36,535.7-293.8,1041.4-703.6,1367.2c-87.9,72-233.9,167.9-323.8,213.9l-163.9,84l58,60c88,92,195.9,285.8,239.9,427.7c48,151.9,52,403.8,10,559.7c-74,281.8-287.8,549.7-537.7,671.6C8241-545.8,8031.1-511.8,7801.3-549.8z M8239-1003.5c137.9-60,261.8-183.9,327.8-329.8c191.9-423.7-113.9-897.5-579.6-901.4c-255.8,0-489.7,149.9-597.6,383.8c-62,133.9-60,375.8,2,513.7c50,109.9,181.9,255.8,273.8,303.8C7843.3-939.5,8067.1-927.5,8239-1003.5z M8366.9-2706.5c251.9-64,451.7-183.9,659.6-389.8c255.9-253.8,397.8-529.7,437.7-851.5l14-109.9l-161.9-76c-169.9-75.9-425.7-149.9-681.6-195.9c-239.9-42-1117.3-34-1369.2,12c-241.8,44-475.7,113.9-647.6,195.9l-127.9,60l12,127.9c6,68,42,203.9,78,301.8c155.9,413.8,465.7,723.6,877.5,879.5C7755.3-2640.5,8049.1-2626.5,8366.9-2706.5z"/></g></g>
</svg>