<?xml version="1.0" encoding="utf-8"?>
<!-- Svg Vector Icons : http://www.onlinewebfonts.com/icon -->
<!DOCTYPE svg PUBLIC "-//W3C//DTD SVG 1.1//EN" "http://www.w3.org/Graphics/SVG/1.1/DTD/svg11.dtd">
<svg version="1.1" xmlns="http://www.w3.org/2000/svg" xmlns:xlink="http://www.w3.org/1999/xlink" x="0px" y="0px" viewBox="0 0 1000 1000" enable-background="new 0 0 1000 1000" xml:space="preserve">
<metadata> Svg Vector Icons : http://www.onlinewebfonts.com/icon </metadata>
<g><g transform="translate(0.000000,511.000000) scale(0.100000,-0.100000)"><path d="M1459.7,4975.5c-56-22-136-80-210-154c-210-210-190,304.1-190-4710.7c0-4134.6,2-4396.6,34-4488.7c50-140,198-294,344-360l118-52l3466.5,4l3468.5,6l100,54c120,64,228,174,292,296l48,90l6,4428.7l4,4426.7l-52,118c-66,146-220,294-360.1,344c-92,32-306.1,34-3538.5,32C1825.8,5009.5,1541.7,5005.5,1459.7,4975.5z M8452.8,4523.4l68-68V110.7v-4344.6l-68-68l-68-68H5000.3H1615.8l-68,68l-68,68l4,4350.6c6,4318.6,6,4350.6,46,4394.6c22,24,58,52,80,62c22,8,1556.2,16,3406.5,16l3368.5,2L8452.8,4523.4z"/><path d="M3536,3315.2C3004,2785.1,2940,2713.1,2940,2657.1c0-142,88-226,234-226c70,0,100,26,642.1,566.1c328.1,326.1,580.1,592.1,598.1,632.1c60,138-42,282-200,282C4132.1,3911.3,4124.1,3905.3,3536,3315.2z"/><path d="M2557.9,3685.3c-48-26-114-86-148-132l-60-86l-6-642.1c-4-424.1,2-670.1,16-718.1c28-98,106-188,208-242c78-42,110-44,662.1-50c702.1-8,756.1,0,890.1,134c128,130,140,188,140,736.1v456.1l-220-220l-220-220v-224v-226H3290h-530.1v530.1v530.1h236h234l210,210l210,210H3148C2661.9,3731.3,2643.9,3729.3,2557.9,3685.3z"/><path d="M5348.3,3191.2c-112-44-166-218-96-316c72-104,72-104,1128.2-104c1078.2,0,1088.2,2,1148.2,118c40,76,40,128,0,204c-60,118-70,118-1152.2,116C5834.4,3209.2,5370.3,3201.2,5348.3,3191.2z"/><path d="M5330.3,1687c-74-40-110-104-110-192c0-70,12-98,58-146l58-58h1310.2c1282.2,0,1310.2,0,1360.2,40c76,60,104,160,66,246c-58,138-6,134-1426.2,134C5756.4,1709,5358.3,1703,5330.3,1687z"/><path d="M2599.9,1038.9c-90-40-174-118-222-212c-36-68-38-124-38-716.1c0-708.1,2-720.1,134-844.1c116-112,150-116,824.1-116h618.1l106,56c78,40,124,82,168,154l60,96v654.1v654.1l-60,96c-44,72-90,114-168,154l-106,56H3292C2781.9,1068.9,2657.9,1062.9,2599.9,1038.9z M3820.1,110.7v-540.1H3290h-530.1v540.1v540.1H3290h530.1V110.7z"/><path d="M5348.3,310.8c-132-54-168-234-70-344l58-66l728.1-6c480.1-4,752.1,0,800.1,16c158,46,208,222,98,344.1l-58,66l-758.1,4C5730.4,326.8,5370.3,320.8,5348.3,310.8z"/><path d="M5278.3-1127.5c-96-98-68-284,52-338c38-18,324-24,1072.1-24h1022.2l68,68c48,48,68,86,68,130c0,86-46,170-110,198c-38,18-326,24-1082.2,24H5336.3L5278.3-1127.5z"/><path d="M2659.9-1607.5c-152-46-262-148-300-278c-14-48-20-294.1-16-716.1l6-642.1l54-78c30-42,88-100,130-128l74-50H3292h684.1l88,60c46,34,108,102,136,150c50,90,50,94,56,670.1c8,678.1,0,744.1-118,878.1c-126,144-178,152-856.1,150C2967.9-1591.5,2687.9-1599.5,2659.9-1607.5z M3820.1-2559.7v-530.1H3290h-530.1v530.1v530.1H3290h530.1V-2559.7z"/><path d="M5348.3-2569.7c-132-54-168-234-70-344l58-66l1258.2-6c690.1-4,1284.2,0,1318.2,6c78,14,162,94,178,170c18,82-38,190-120,228c-58,28-218,32-1324.2,30C5956.4-2551.7,5370.3-2559.7,5348.3-2569.7z"/></g></g>
</svg>