<?xml version="1.0" encoding="utf-8"?>
<!-- Svg Vector Icons : http://www.onlinewebfonts.com/icon -->
<!DOCTYPE svg PUBLIC "-//W3C//DTD SVG 1.1//EN" "http://www.w3.org/Graphics/SVG/1.1/DTD/svg11.dtd">
<svg version="1.1" xmlns="http://www.w3.org/2000/svg" xmlns:xlink="http://www.w3.org/1999/xlink" x="0px" y="0px" viewBox="0 0 1000 1000" enable-background="new 0 0 1000 1000" xml:space="preserve">
<metadata> Svg Vector Icons : http://www.onlinewebfonts.com/icon </metadata>
<g><g transform="translate(0.000000,511.000000) scale(0.100000,-0.100000)"><path d="M2409,2808.5c-1021-164.1-1850.1-859-2172-1822.4C119.8,636.5,90,417,102.7,16.3c8.5-270.7,21.3-383.7,63.9-543.5c275-1048.7,1010.3-1764.9,2082.4-2031.3c176.9-44.7,225.9-44.7,2611-53.3c1613.5-4.3,2495.9,0,2623.8,14.9c321.9,38.4,588.3,117.2,893.1,268.6c317.6,157.7,505.2,289.9,748.1,535c383.7,385.8,650.1,905.9,746,1466.4c51.2,287.7,32,805.7-40.5,1078.5c-110.9,419.9-266.4,737.5-524.4,1065.7c-315.4,398.6-773.7,720.4-1263.9,882.4c-405,134.3-232.3,127.9-2969.1,132.2C3118.8,2836.2,2543.3,2831.9,2409,2808.5z M7354,2392.8c573.4-51.2,1057.2-275,1449.4-671.4C9577.1,939.2,9690-250.2,9076.2-1171c-219.6-330.4-613.9-656.5-980.5-816.3c-257.9-110.9-475.3-159.9-805.7-181.2c-358.1-23.5-4367.3-21.3-4661.5,2.1c-541.4,42.6-1044.4,277.1-1434.5,669.3C705.9-1009,465.1-326.9,539.7,342.4c34.1,311.2,91.7,505.2,228.1,782.3c356,720.4,1050.8,1197.9,1843.7,1266.1C2905.6,2416.3,7072.6,2418.4,7354,2392.8z"/><path d="M6789.1,2149.9C5974.9,1979.3,5365.3,1391.1,5165,587.5c-66.1-264.3-66.1-686.3,0-950.6c187.6-748.1,750.3-1330,1485.6-1528.2c213.1-57.6,618.1-78.9,841.9-44.8c848.3,132.2,1526.1,775.8,1720.1,1632.7c40.5,183.3,46.9,611.7,8.5,788.6c-138.5,669.3-573.3,1229.9-1159.5,1502.7c-275,127.9-488.1,174.8-824.9,183.3C7032.1,2175.4,6880.8,2169,6789.1,2149.9z M7577.8,1700.1c76.7-19.2,230.2-78.9,341-132.2c172.6-85.3,232.3-130,405-302.7c225.9-225.9,336.8-409.2,430.6-705.5c40.5-134.3,49-204.6,49-447.6c0-243-8.5-313.3-49-447.6c-119.4-377.3-366.6-711.9-679.9-916.5c-824.9-541.4-1929-236.6-2361.7,648c-215.3,439.1-215.3,993.3,0,1432.3c236.6,481.7,697,818.5,1236.3,905.9C7091.8,1757.7,7407.3,1740.6,7577.8,1700.1z"/><path d="M2590.2,112.2v-980.5H2814h223.8v980.5v980.5H2814h-223.8V112.2z"/></g></g>
</svg>