<?xml version="1.0" encoding="utf-8"?>
<!-- Svg Vector Icons : http://www.onlinewebfonts.com/icon -->
<!DOCTYPE svg PUBLIC "-//W3C//DTD SVG 1.1//EN" "http://www.w3.org/Graphics/SVG/1.1/DTD/svg11.dtd">
<svg version="1.1" xmlns="http://www.w3.org/2000/svg" xmlns:xlink="http://www.w3.org/1999/xlink" x="0px" y="0px" viewBox="0 0 1000 1000" enable-background="new 0 0 1000 1000" xml:space="preserve">
<metadata> Svg Vector Icons : http://www.onlinewebfonts.com/icon </metadata>
<g><path d="M523.7,990H188.9c-70.2,0-125.8-57.2-125.8-125.8V135.8C63.1,65.5,120.2,10,188.9,10h622.3c70.2,0,125.8,57.2,125.8,125.8v470.4H865V135.8c0-29.4-24.5-53.9-53.9-53.9H188.9c-29.4,0-53.9,24.5-53.9,53.9v726.8c0,29.4,24.5,53.9,53.9,53.9h334.8V990L523.7,990z"/><path d="M675.6,990c-8.2,0-16.3-3.3-22.9-8.2l-148.6-116c-16.3-13.1-19.6-37.6-6.5-53.9c13.1-16.3,37.6-19.6,53.9-6.5l119.2,93.1L868.3,665c13.1-16.3,37.6-18,53.9-4.9c16.3,13.1,18,37.6,4.9,53.9L705,975.3C696.8,985.1,687,990,675.6,990L675.6,990z"/><path d="M714.8,266.4H270.5c-21.2,0-39.2-18-39.2-39.2c0-21.2,18-39.2,39.2-39.2h444.3c21.2,0,39.2,18,39.2,39.2C752.4,250.1,736,266.4,714.8,266.4L714.8,266.4z"/><path d="M714.8,472.2H270.5c-21.2,0-39.2-18-39.2-39.2c0-21.2,18-39.2,39.2-39.2h444.3c21.2,0,39.2,18,39.2,39.2C752.4,454.3,736,472.2,714.8,472.2L714.8,472.2z"/><path d="M714.8,676.4H270.5c-21.2,0-39.2-18-39.2-39.2c0-21.2,18-39.2,39.2-39.2h444.3c21.2,0,39.2,18,39.2,39.2C752.4,658.4,736,676.4,714.8,676.4L714.8,676.4z"/></g>
</svg>