<?xml version="1.0" encoding="utf-8"?>
<!-- Svg Vector Icons : http://www.onlinewebfonts.com/icon -->
<!DOCTYPE svg PUBLIC "-//W3C//DTD SVG 1.1//EN" "http://www.w3.org/Graphics/SVG/1.1/DTD/svg11.dtd">
<svg version="1.1" xmlns="http://www.w3.org/2000/svg" xmlns:xlink="http://www.w3.org/1999/xlink" x="0px" y="0px" viewBox="0 0 1000 1000" enable-background="new 0 0 1000 1000" xml:space="preserve">
<metadata> Svg Vector Icons : http://www.onlinewebfonts.com/icon </metadata>
<g><path d="M441.1,933.5c-65.4-5-106-38.3-116.2-47c-7.8-6.6-15.3-13.5-21.8-19.7L291.3,855c-56.8-60.3-74.9-123.6-60.6-211.6c6.1-37.2,19.7-71.4,34.1-107.7c3.9-9.9,7.9-19.8,11.7-29.9c4.1,27,6.8,52.9,7.7,71.6l4.5,86.8l47.5-72.8c56.9-87.3,105.6-268.7,113.1-401.3c1.8-31.7-2.1-61.5-14.6-99.9c-12.5-38.4-50-32-50-32l7.1,59.4c10.6,89-19.4,248.2-62.6,360.2c-6.6-37.5-12.3-61.6-19.2-94c-11.5-53.9-48.6-86.6-48.6-86.6s0.9,33.6-7.9,87.5c-8.9,54.3-24,86.9-41.1,130.1c-14.9,37.5-30.3,76.2-37.4,119.5c-17.2,105.9,6,185.9,75.8,260.1l12.9,12.8c7.7,7.4,16.1,15.1,24.7,22.3c17.2,14.7,68.8,54.2,148.5,60.3c0.7,0.1,1.5,0.1,2.2,0.1c14.7,0,27-11.3,28.2-26.1C468.3,948.3,456.6,934.7,441.1,933.5z"/><path d="M818.5,504.7c-25.1-113.6-88.7-203.1-107.3-224.4c-35-42.9-64.5-50.3-64.5-50.3s16.5,38,19.1,81.1c2.6,43.1-4.2,58-19,95.6c-11.8-40.6-72.6-169.6-115.1-234.2C491.7,111.6,435.1,46.5,376.5,10c1.3,14,9.1,52.5,10.4,66.3c96.6,97.9,203.6,324.3,222.1,412.6l11.5,54.8l37.3-41.7c18.7-20.9,43-70.3,56.2-118.6c17.9,33.9,37.4,79.8,49.2,133.6c19.6,88.6,21.7,218.3-79.6,332.4C666,869.2,627.7,929,549,933.4c-15.6,0.9-27.5,14.3-26.6,29.8c0.8,15,13.3,26.7,28.2,26.7c0.5,0,1.1,0,1.6,0c67.8-3.9,116-38,173.7-103.1C843.1,754.9,840.9,606.2,818.5,504.7z"/></g>
</svg>