<?xml version="1.0" encoding="utf-8"?>
<!-- Svg Vector Icons : http://www.onlinewebfonts.com/icon -->
<!DOCTYPE svg PUBLIC "-//W3C//DTD SVG 1.1//EN" "http://www.w3.org/Graphics/SVG/1.1/DTD/svg11.dtd">
<svg version="1.1" xmlns="http://www.w3.org/2000/svg" xmlns:xlink="http://www.w3.org/1999/xlink" x="0px" y="0px" viewBox="0 0 1000 1000" enable-background="new 0 0 1000 1000" xml:space="preserve">
<metadata> Svg Vector Icons : http://www.onlinewebfonts.com/icon </metadata>
<g><path d="M719.7,930.3H149.5C72.6,930.3,10,867.7,10,790.8v-87.2c0-24.1,6.4-46.6,17.5-66.2l245.6-528.8c11-23.7,35-39,61.1-39H855c23.2,0,44.4,11.7,56.8,31.2c12.4,19.6,14,43.8,4.2,64.7L729,565.4c-13.5,28.9-42.9,47.5-74.8,47.5H143.9c-33.1,0-62.2,17.9-78,44.5l-7.8,16.7c-3.2,9.3-4.9,19.2-4.9,29.5v87.2c0,53.1,43.2,96.3,96.3,96.3h570.2c12.3,0,23.4-7.8,27.6-19.4c0.1-0.4,0.3-0.8,0.4-1.1l200.8-472.5c4.7-11,17.3-16.1,28.3-11.4c11,4.7,16.1,17.3,11.4,28.3L787.7,883C777.2,911.3,750,930.3,719.7,930.3z M334.2,112.9c-9.4,0-18,5.5-21.9,14l-208.5,449c12.7-4,26.2-6.1,40.2-6.1h510.3c15.2,0,29.2-8.9,35.6-22.7l187-399.8c3.6-7.6,3-16.1-1.5-23.2c-4.5-7.1-12-11.2-20.4-11.2L334.2,112.9L334.2,112.9z"/><path d="M661.9,723H129.1c-13.4,0-24.3-10.9-24.3-24.4l0,0c0-13.5,10.9-24.4,24.3-24.4h532.8c13.4,0,24.4,10.9,24.4,24.4l0,0C686.3,712.1,675.4,723,661.9,723z"/><path d="M661.9,828.8H129.1c-13.4,0-24.3-10.9-24.3-24.4l0,0c0-13.5,10.9-24.3,24.3-24.3h532.8c13.4,0,24.4,10.9,24.4,24.3l0,0C686.3,817.9,675.4,828.8,661.9,828.8z"/></g>
</svg>