<?xml version="1.0" encoding="utf-8"?>
<!-- Generator: Adobe Illustrator 25.0.0, SVG Export Plug-In . SVG Version: 6.00 Build 0)  -->
<svg version="1.1" id="Layer_1" xmlns="http://www.w3.org/2000/svg" xmlns:xlink="http://www.w3.org/1999/xlink" x="0px" y="0px"
	 viewBox="0 0 841.9 595.3" style="enable-background:new 0 0 841.9 595.3;" xml:space="preserve">
<g>
	<path d="M416.1,217.6c0-5.7-3.7-10.6-8.9-12.3c1.8-1.3,2.9-3.4,2.9-5.7c0-3.9-3.1-7-7-7c-3.9,0-7,3.1-7,7c0,2.2,1.1,4.4,2.9,5.7
		c-5.2,1.7-8.9,6.6-8.9,12.3v1h26V217.6z M398.1,199.6c0-2.8,2.2-5,5-5c2.8,0,5,2.2,5,5c0,2.8-2.2,5-5,5
		C400.3,204.6,398.1,202.4,398.1,199.6L398.1,199.6z M392.1,216.6c0.5-5.6,5.2-10,11-10s10.4,4.4,11,10H392.1z M392.1,216.6"/>
	<path d="M429.2,227.3c1.8-1.3,2.9-3.4,2.9-5.7c0-3.9-3.1-7-7-7c-3.9,0-7,3.1-7,7c0,2.2,1.1,4.4,2.9,5.7c-5.2,1.7-8.9,6.6-8.9,12.3
		v1h26v-1C438.1,233.9,434.3,229,429.2,227.3L429.2,227.3z M420.1,221.6c0-2.8,2.2-5,5-5c2.8,0,5,2.2,5,5c0,2.8-2.2,5-5,5
		C422.3,226.6,420.1,224.4,420.1,221.6L420.1,221.6z M414.1,238.6c0.5-5.6,5.2-10,11-10c5.7,0,10.4,4.4,11,10H414.1z M414.1,238.6"
		/>
	<path d="M426.1,210.6v-12h-8.6l3.3-3.3l-1.4-1.4l-5.7,5.7l5.7,5.7l1.4-1.4l-3.3-3.3h6.6v10H426.1z M426.1,210.6"/>
	<path d="M401.4,229.3l3.3,3.3h-6.6v-10h-2v12h8.6l-3.3,3.3l1.4,1.4l5.7-5.7l-5.7-5.7L401.4,229.3z M401.4,229.3"/>
</g>
</svg>
