<?xml version="1.0" encoding="utf-8"?>
<!-- Svg Vector Icons : http://www.onlinewebfonts.com/icon -->
<!DOCTYPE svg PUBLIC "-//W3C//DTD SVG 1.1//EN" "http://www.w3.org/Graphics/SVG/1.1/DTD/svg11.dtd">
<svg version="1.1" xmlns="http://www.w3.org/2000/svg" xmlns:xlink="http://www.w3.org/1999/xlink" x="0px" y="0px" viewBox="0 0 1000 1000" enable-background="new 0 0 1000 1000" xml:space="preserve">
<metadata> Svg Vector Icons : http://www.onlinewebfonts.com/icon </metadata>
<g><path d="M72.5,14.4h333.3c34.4,0,62.5,28.1,62.5,62.5v333.3c0,34.4-28.2,62.5-62.5,62.5H72.5c-34.3,0-62.5-28.1-62.5-62.5V76.9C10,42.5,38.2,14.4,72.5,14.4L72.5,14.4z M594.2,527.3h333.3c34.4,0,62.5,28.1,62.5,62.5V923c0,34.4-28.1,62.5-62.5,62.5H594.2c-34.4,0-62.5-28.2-62.5-62.5V589.7C531.7,555.4,559.8,527.3,594.2,527.3L594.2,527.3z M630.5,577.2c-26.9,0-48.9,22-48.9,48.9v260.7c0,26.9,22,48.9,48.9,48.9h260.7c26.9,0,48.9-22,48.9-48.9V626.1c0-26.9-22-48.9-48.9-48.9H630.5L630.5,577.2z M594.2,14.4h333.3c34.4,0,62.5,28.1,62.5,62.5v333.3c0,34.4-28.1,62.5-62.5,62.5H594.2c-34.4,0-62.5-28.1-62.5-62.5V76.9C531.7,42.5,559.8,14.4,594.2,14.4L594.2,14.4z M630.5,64.4c-26.9,0-48.9,22-48.9,48.9v260.7c0,26.9,22,48.9,48.9,48.9h260.7c26.9,0,48.9-22,48.9-48.9V113.2c0-26.9-22-48.9-48.9-48.9H630.5L630.5,64.4z M72.5,527.3h333.3c34.4,0,62.5,28.1,62.5,62.5V923c0,34.4-28.2,62.5-62.5,62.5H72.5C38.2,985.6,10,957.4,10,923V589.7C10,555.4,38.2,527.3,72.5,527.3L72.5,527.3z M108.8,577.2c-26.9,0-48.9,22-48.9,48.9v260.7c0,26.9,22,48.9,48.9,48.9h260.7c26.9,0,48.9-22,48.9-48.9V626.1c0-26.9-22-48.9-48.9-48.9H108.8L108.8,577.2z M108.8,64.4c-26.9,0-48.9,22-48.9,48.9v260.7c0,26.9,22,48.9,48.9,48.9h260.7c26.9,0,48.9-22,48.9-48.9V113.2c0-26.9-22-48.9-48.9-48.9H108.8z"/></g>
</svg>