<?xml version="1.0" encoding="utf-8"?>
<!-- Svg Vector Icons : http://www.onlinewebfonts.com/icon -->
<!DOCTYPE svg PUBLIC "-//W3C//DTD SVG 1.1//EN" "http://www.w3.org/Graphics/SVG/1.1/DTD/svg11.dtd">
<svg version="1.1" xmlns="http://www.w3.org/2000/svg" xmlns:xlink="http://www.w3.org/1999/xlink" x="0px" y="0px" viewBox="0 0 1000 1000" enable-background="new 0 0 1000 1000" xml:space="preserve">
<metadata> Svg Vector Icons : http://www.onlinewebfonts.com/icon </metadata>
<g><path d="M500,990c-4.2,0-8.3-0.1-12.5-0.2c-115.3-3.9-218.9-66.3-277.3-166.9C150.6,720,148,596,203.3,491.2c0.4-0.8,0.9-1.5,1.3-2.3l89.9-142.3c42-66.6,79.9-136.6,112.5-208.2l44.2-97.1C460.1,22,478.7,10,500,10c21.2,0,39.9,12,48.7,31.3l44.3,97.3c32.6,71.6,70.5,141.7,112.5,208.2l89.8,142.1c0.5,0.8,0.9,1.5,1.3,2.3C852,596,849.4,720,789.7,822.9c-58.4,100.6-162,163-277.3,166.9C508.3,989.9,504.2,990,500,990z M263.3,524.4c-43.6,83.6-41.3,182.2,6.2,264.1c46.5,80.1,128.8,129.7,220.3,132.8c6.7,0.2,13.6,0.2,20.4,0c91.5-3.1,173.8-52.7,220.3-132.8c47.5-81.9,49.8-180.6,6.2-264.1l-89-141c-43.7-69.2-83-142-116.9-216.4L500,99.7l-30.6,67.2c-33.9,74.4-73.2,147.2-116.9,216.4L263.3,524.4z"/><path d="M500,869.2c-20.2,0-40.2-2.7-59.5-8c-18.2-5-29-23.9-24-42.1c5-18.3,23.9-28.9,42.1-24c13.4,3.7,27.3,5.5,41.4,5.5c18.9,0,34.3,15.3,34.3,34.3C534.3,853.9,518.9,869.2,500,869.2z"/><path d="M586.2,848.6c-12.5,0-24.5-6.8-30.6-18.7c-8.6-16.9-1.9-37.5,15-46.1c16.5-8.4,31.2-19.5,43.8-33.1c26.8-28.9,41.5-66.5,41.5-106c0-37.2-13.3-73.1-37.4-101.4c-12.3-14.4-10.6-36,3.8-48.3c14.4-12.3,36-10.6,48.3,3.8c34.7,40.6,53.9,92.4,53.9,145.9c0,56.7-21.2,110.9-59.8,152.5c-18.1,19.5-39.3,35.5-62.9,47.6C596.8,847.4,591.5,848.6,586.2,848.6z"/></g>
</svg>