<?xml version="1.0" encoding="utf-8"?>
<!-- Svg Vector Icons : http://www.onlinewebfonts.com/icon -->
<!DOCTYPE svg PUBLIC "-//W3C//DTD SVG 1.1//EN" "http://www.w3.org/Graphics/SVG/1.1/DTD/svg11.dtd">
<svg version="1.1" xmlns="http://www.w3.org/2000/svg" xmlns:xlink="http://www.w3.org/1999/xlink" x="0px" y="0px" viewBox="0 0 1000 1000" enable-background="new 0 0 1000 1000" xml:space="preserve">
<metadata> Svg Vector Icons : http://www.onlinewebfonts.com/icon </metadata>
<g><path d="M140.2,460.7l-32.3,6.3l-68.1,13.4c-21.4,4.2-34.2,30.9-28.6,59.7l44.6,226.5c5.7,28.7,26.1,41.1,47.6,36.9l68.1-13.4l32.2-6.3l39-7.7l-63.6-323.1L140.2,460.7L140.2,460.7z"/><path d="M530.8,237.1c-6.5-26.1-29-43-50.2-37.7c-6.2,1.5-11.5,4.8-15.9,9.3l-0.2,0.2L228.4,445.6h0.4v-0.5h-0.2h-0.1l63.9,323h0.2l0,0L624.4,859c7,3,14.4,3.8,21.8,2c21.2-5.3,33-30.8,26.5-56.8L530.8,237.1L530.8,237.1z"/><path d="M669.2,395.8l175.6-175.6c19.4-19.4,20.1-50.2,1.5-68.7c-18.6-18.5-49.3-17.9-68.7,1.5L601.9,328.6c-19.4,19.4-20.1,50.2-1.5,68.7C619,415.9,649.8,415.3,669.2,395.8L669.2,395.8z"/><path d="M633.1,511.4c5.9,25.6,32.4,41.3,59.1,35.1l241.9-56.1c26.7-6.2,43.6-31.9,37.7-57.5c-6-25.6-32.4-41.3-59.1-35.1l-241.9,56.1C644,460.1,627.2,485.8,633.1,511.4L633.1,511.4z"/><path d="M954.9,681.8l-236.7-75.1c-26.1-8.3-53.7,5.3-61.7,30.3c-7.9,25,6.8,52,33,60.3l236.7,75.1c26.1,8.3,53.8-5.3,61.7-30.3C995.8,717.1,981,690.1,954.9,681.8L954.9,681.8z"/></g>
</svg>