<?xml version="1.0" encoding="utf-8"?>
<!-- Svg Vector Icons : http://www.onlinewebfonts.com/icon -->
<!DOCTYPE svg PUBLIC "-//W3C//DTD SVG 1.1//EN" "http://www.w3.org/Graphics/SVG/1.1/DTD/svg11.dtd">
<svg version="1.1" xmlns="http://www.w3.org/2000/svg" xmlns:xlink="http://www.w3.org/1999/xlink" x="0px" y="0px" viewBox="0 0 1000 1000" enable-background="new 0 0 1000 1000" xml:space="preserve">
<metadata> Svg Vector Icons : http://www.onlinewebfonts.com/icon </metadata>
<g><path d="M319.7,263.2h-18.2v54.6H155.7V172.1h163.9v-18.2H137.5v182.2h182.2L319.7,263.2L319.7,263.2z M345.2,427.1c-3.6,0-5.5,1.8-9.1,3.6l-82,78.3l-41.9-41.9c-1.8-1.8-5.5-3.6-9.1-3.6c-7.3,0-10.9,5.5-10.9,10.9c0,3.6,1.8,5.5,3.6,7.3l51,49.2c1.8,1.8,5.5,3.6,9.1,3.6s5.5-1.8,9.1-3.6l89.3-87.4c1.8-1.8,3.6-5.5,3.6-7.3C356.1,432.6,350.6,427.1,345.2,427.1L345.2,427.1L345.2,427.1z M301.4,572.9H155.7V427.1h163.9v-18.2H137.5v182.2h182.2v-72.9h-18.2L301.4,572.9L301.4,572.9z M410.7,846.1l136.6-34.6l-102-102L410.7,846.1L410.7,846.1z M345.2,172.1c-3.6,0-5.5,1.8-9.1,3.6l-82,78.3l-41.9-41.9c-1.8-1.8-5.5-3.6-9.1-3.6c-7.3,0-10.9,5.5-10.9,10.9c0,3.6,1.8,5.5,3.6,7.3l51,49.2c1.8,1.8,5.5,3.6,9.1,3.6s5.5-1.8,9.1-3.6l89.3-87.4c1.8-1.8,3.6-5.5,3.6-7.3C356.1,177.6,350.6,172.1,345.2,172.1L345.2,172.1L345.2,172.1z M979.1,328.8l-51-51c-14.6-14.6-36.4-14.6-51,0l-65.6,65.6V81c0-31-23.7-54.6-54.6-54.6H64.6C33.7,26.4,10,50.1,10,81V919c0,31,23.7,54.6,54.6,54.6h692.2c31,0,54.6-23.7,54.6-54.6V547.4l65.6-65.6l-65.6-65.6v-51l91.1,91.1l76.5-76.5C993.6,365.2,993.6,341.5,979.1,328.8L979.1,328.8L979.1,328.8z M811.5,343.3l-10.9,10.9l10.9,10.9v51l-36.4-36.4l-306,306l102,102l238.6-238.6v43.7l-36.4,36.4v273.2c0,20-16.4,36.4-36.4,36.4H81c-20,0-36.4-16.4-36.4-36.4V101.1C44.6,81,61,64.6,81,64.6h655.8c20,0,36.4,16.4,36.4,36.4v236.8l36.4-36.4v41.9H811.5L811.5,343.3z M410.7,263.2h291.4v-36.4H410.7V263.2z M410.7,518.2h145.7v-36.4H410.7V518.2z M137.5,846.1h182.2V663.9H137.5V846.1L137.5,846.1z M301.4,682.2v145.7H155.7V682.2H301.4z"/></g>
</svg>