<?xml version="1.0" encoding="utf-8"?>
<!-- Generator: Adobe Illustrator 25.0.0, SVG Export Plug-In . SVG Version: 6.00 Build 0)  -->
<svg version="1.1" id="Layer_1" xmlns="http://www.w3.org/2000/svg" xmlns:xlink="http://www.w3.org/1999/xlink" x="0px" y="0px"
	 viewBox="0 0 1000 1000" style="enable-background:new 0 0 1000 1000;" xml:space="preserve">
<g>
	<path d="M940.1,275.8v-99.7c0-40.1-25.9-66.4-66.4-66.4H76.4C35.9,109.7,10,136,10,176.1v647.8c0,40.1,25.9,66.4,66.4,66.4h797.4
		c40.5,0,66.4-26.3,66.4-66.4V707.6H990V275.8H940.1z M890.3,823.9c0,13.4-3.1,16.6-16.6,16.6H76.4c-13.5,0-16.6-3.2-16.6-16.6
		V176.1c0-13.4,3.1-16.6,16.6-16.6h797.3c13.5,0,16.6,3.2,16.6,16.6l0,99.7h-66.4c-121.6,0-225.9,99.5-225.9,219.9
		s104.3,211.9,225.9,211.9h66.4V823.9z M940.2,657.8H823.9c-94.6,0-176.9-68.4-176.9-162.1s82.3-170.1,176.9-170.1h116.3V657.8z"/>
	<ellipse cx="745" cy="495.7" rx="49" ry="48.5"/>
	<ellipse cx="745" cy="495.7" rx="49" ry="48.5"/>
</g>
</svg>
