<?xml version="1.0" encoding="utf-8"?>
<!-- Svg Vector Icons : http://www.onlinewebfonts.com/icon -->
<!DOCTYPE svg PUBLIC "-//W3C//DTD SVG 1.1//EN" "http://www.w3.org/Graphics/SVG/1.1/DTD/svg11.dtd">
<svg version="1.1" xmlns="http://www.w3.org/2000/svg" xmlns:xlink="http://www.w3.org/1999/xlink" x="0px" y="0px" viewBox="0 0 1000 1000" enable-background="new 0 0 1000 1000" xml:space="preserve">
<metadata> Svg Vector Icons : http://www.onlinewebfonts.com/icon </metadata>
<g><g transform="translate(0.000000,511.000000) scale(0.100000,-0.100000)"><path d="M4731.3,4983.3c-31.6-13.8-90.9-63.2-130.4-108.7c-37.5-43.5-85-81-102.7-81c-69.2,0-397.2-122.5-573-213.4c-519.7-268.7-940.6-745-1152-1308.1c-86.9-231.2-124.5-444.6-138.3-784.5l-11.8-322.1h-154.1h-156.1v-158.1v-158.1h351.7c339.9,0,353.7-2,393.2-43.5c39.5-43.5,41.5-71.1,51.4-618.5c9.9-612.6,19.8-685.7,124.5-956.4c100.8-252.9,223.3-434.7,448.5-660l211.4-213.4V-836v-191.7l-685.7-154.1c-377.4-85-754.8-179.8-835.8-211.4c-561.2-215.4-1017.6-699.5-1219.2-1292.3c-90.9-268.7-104.7-432.8-104.7-1298.2V-4790h3952h3952v796.3c0,592.8-7.9,841.8-29.6,982.1c-108.7,719.3-620.5,1359.5-1294.3,1618.3c-81,31.6-458.4,126.5-835.8,211.4l-685.7,154.1V-836v193.6L6320-429c223.3,225.3,345.8,407,446.6,660c104.7,270.7,114.6,343.8,124.5,956.4c9.9,547.4,11.9,575,51.4,618.5c39.5,41.5,53.4,43.5,393.2,43.5h351.7v158.1v158.1h-156.1h-154.1l-11.8,312.2c-9.9,324.1-39.5,499.9-122.5,746.9c-189.7,567.1-632.3,1078.9-1169.8,1357.5c-173.9,88.9-505.8,211.4-577,211.4c-19.8,0-65.2,35.6-100.8,81c-35.6,45.4-94.9,92.9-130.4,108.7C5177.8,5018.9,4816.2,5018.9,4731.3,4983.3z M5158.1,4220.6v-474.2h158.1h158.1v365.6c0,201.6,7.9,365.6,17.8,365.6c41.5,0,330-104.7,442.6-160.1c430.8-217.4,798.3-614.5,970.2-1051.2c104.7-264.8,132.4-416.9,144.2-768.7l11.9-332h-128.4h-128.4l-67.2-112.6c-49.4-81-90.9-124.5-154.1-158.1l-86.9-45.4H5000H3504.2l-86.9,45.4c-63.2,33.6-104.7,77.1-154.1,158.1l-67.2,112.6h-128.4H2939l11.9,332c9.9,351.7,37.5,499.9,144.3,768.7c171.9,436.7,539.4,833.9,970.2,1051.2c112.6,55.3,401.1,160.1,442.6,160.1c9.9,0,17.8-164,17.8-365.6v-365.6h158.1h158.1v474.2v474.2H5000h158.1V4220.6z M6574.9,1068.9c-9.9-529.6-21.8-600.7-154.1-873.4c-122.5-256.9-306.3-464.4-551.3-626.4l-102.8-67.2l-120.5,122.5c-85,83-148.2,130.4-203.5,146.2c-49.4,13.8-221.3,23.7-442.6,23.7s-393.2-9.9-442.6-23.7c-55.3-15.8-118.6-63.2-203.5-146.2l-120.5-122.5l-102.8,67.2c-245,162-428.8,369.5-551.3,626.4c-132.4,272.7-144.3,343.8-154.1,873.4l-9.9,474.2H5000h1584.8L6574.9,1068.9z M5416.9-541.6c61.3-33.6,43.5-75.1-45.4-102.8c-120.5-35.6-650.1-29.6-766.7,5.9l-86.9,29.6l43.5,43.5c41.5,41.5,57.3,43.5,430.8,43.5C5219.3-521.8,5393.2-529.7,5416.9-541.6z M4438.8-901.2c231.2-79,509.8-108.7,760.8-79c167.9,19.7,409,85,557.2,150.2c29.6,13.8,33.6,3.9,33.6-104.7v-120.5l-395.2-197.6L5000-1450.6l-395.2,197.6l-395.2,197.6v120.5c0,108.7,4,118.6,35.6,104.7C4263-838,4351.9-869.6,4438.8-901.2z M4820.2-1719.3c13.8-11.9-399.1-424.8-416.9-418.9c-19.8,7.9-569.1,743-569.1,762.7c0,9.9,41.5,25.7,94.8,35.6c92.9,19.8,94.9,17.8,488.1-175.9C4634.4-1624.4,4816.2-1715.3,4820.2-1719.3z M6165.8-1375.5c0-19.8-549.3-754.8-569.1-762.7c-17.8-5.9-430.8,407.1-417,418.9c4,4,183.8,94.9,401.2,203.5l391.3,195.6l96.8-19.8C6122.4-1349.8,6165.8-1367.6,6165.8-1375.5z M4166.1-2357.5l675.8-905V-3551v-290.5h-948.5H2945v1142.1v1140.2l233.2,53.4c126.5,27.7,249,51.4,270.7,53.4C3478.5-1452.5,3658.3-1679.8,4166.1-2357.5z M6804.1-1503.9l250.9-55.3v-1140.2v-1142.1h-948.5h-948.5v292.5v292.4l677.8,903c371.5,496,685.7,903,695.6,903C6543.3-1450.6,6663.8-1474.3,6804.1-1503.9z M2628.8-3051.1v-1422.7h-632.3h-632.3v669.9c0,525.6,5.9,705.4,31.6,831.9c77.1,409,282.6,756.8,598.7,1011.7c169.9,136.4,424.8,270.7,630.3,330C2626.8-1628.4,2628.8-2268.6,2628.8-3051.1z M7744.7-1788.4c407.1-219.3,709.4-602.7,835.8-1057.2c39.5-144.3,43.5-211.4,51.4-891.2l7.9-737h-634.3h-634.3v1420.8v1422.7l112.6-39.5C7545.1-1689.6,7661.7-1743,7744.7-1788.4z M5205.5-2219.2l193.6-195.6l-191.7-252.9c-104.7-140.3-197.6-254.9-207.5-254.9s-102.8,114.6-207.5,254.9l-191.7,252.9l193.7,195.6c106.7,108.7,199.6,195.6,205.5,195.6S5098.8-2110.5,5205.5-2219.2z M4841.9-4315.8v-158.1h-948.5H2945v158.1v158.1h948.5h948.5V-4315.8z M7055-4315.8v-158.1h-948.5h-948.5v158.1v158.1h948.5H7055V-4315.8z"/><path d="M3419.2,2323.6v-158.1H5000h1580.8v158.1v158.1H5000H3419.2V2323.6z"/></g></g>
</svg>