<?xml version="1.0" encoding="utf-8"?>
<!-- Svg Vector Icons : http://www.onlinewebfonts.com/icon -->
<!DOCTYPE svg PUBLIC "-//W3C//DTD SVG 1.1//EN" "http://www.w3.org/Graphics/SVG/1.1/DTD/svg11.dtd">
<svg version="1.1" xmlns="http://www.w3.org/2000/svg" xmlns:xlink="http://www.w3.org/1999/xlink" x="0px" y="0px" viewBox="0 0 1000 1000" enable-background="new 0 0 1000 1000" xml:space="preserve">
<metadata> Svg Vector Icons : http://www.onlinewebfonts.com/icon </metadata>
<g><path d="M143.7,674c-13,0-22.3-9.3-22.3-22.3V317.5c0-13,9.2-22.3,22.3-22.3H478c13,0,22.3,9.3,22.3,22.3v334.3c0,13-9.2,22.3-22.3,22.3H143.7z M357.8,539.5c0,0-30.8-5.4-34.3-27.6c19.4-6.7,36-23.9,44.8-44.5l-0.3,1.4c22.2-10.1,20.8-28.6,20.8-28.6c0-15.3-12.7-4.9-12.7-4.9l-1.2,4.8c0.1-1.6,0.5-3.1,0.5-4.7c0-39-29.7-70.6-66.4-70.6c-36.6,0-66.4,31.6-66.4,70.6c0,0.1,0,0.2,0,0.3l-0.1-0.4c0,0-12.7-10.4-12.7,4.9c0,0-1,17.3,19,27.6c6.4,16.7,17.3,31.2,31.2,39.6c-0.6,10-4.6,26.8-25.2,32.8c-29.9,8.8-59.8,8.2-66.6,67h245.1C433.4,607.2,440.2,551.5,357.8,539.5z M901.4,228.3c0-31.6-12.6-44.6-44.6-44.6H99.1c-30.3,3.9-44.2,13.7-44.6,44.6v490.3c0,31.6,12.5,44.6,44.6,44.6h557.1l-2.3,44.6H69c-32.6,0-59-26.3-59-58.8V197.9c0-32.4,26.4-58.7,59-58.7H887c32.6,0,59,26.3,59,58.7v342.4h-44.6V228.3z M544.8,562.6V518h111.4v44.6H544.8z M544.8,295.2h289.7v44.6l-289.7,0V295.2z M834.5,451.2H544.8v-44.6h289.7V451.2z M834,548.8c86.2,0,156,69.8,156,156c0,86.2-69.8,156-156,156c-86.2,0-156-69.8-156-156C678,618.7,747.8,548.8,834,548.8z M749.9,712.1l64.9,65.7c0.9,0.9,2,1.4,3,2c0.2,0.2,0.3,0.5,0.5,0.8c6.2,6.3,16.2,6.3,22.3,0l100.6-102c6.2-6.3,6.2-16.4,0-22.7c-6.2-6.3-16.2-6.3-22.3,0l-90.7,92l-56.8-57.6c-5.9-6-15.5-6-21.4,0C744,696.4,744,706.1,749.9,712.1z"/></g>
</svg>