<?xml version="1.0" encoding="utf-8"?>
<!-- Generator: Adobe Illustrator 25.0.0, SVG Export Plug-In . SVG Version: 6.00 Build 0)  -->
<svg version="1.1" id="Layer_1" xmlns="http://www.w3.org/2000/svg" xmlns:xlink="http://www.w3.org/1999/xlink" x="0px" y="0px"
	 viewBox="0 0 1000 1000" style="enable-background:new 0 0 1000 1000;" xml:space="preserve">
<g>
	<g>
		<path d="M267.7,185.3c3.7,0,6.6,2,8.2,5.6l15.8,35.1c4,9,11.8,14.8,21.3,16l36.9,4.8c3.7,0.5,6.4,2.8,7.6,6.7
			c1.2,3.9,0.3,7.8-2.5,10.5l-27.1,26.5c-6.8,6.7-9.8,16-8,25.5l7,38.1c0.7,4-0.6,7.7-3.8,10.1c-1.6,1.2-3.4,1.8-5.2,1.8
			c-1.4,0-2.9-0.4-4.3-1.2L281,346.2c-4.2-2.4-8.7-3.6-13.3-3.6s-9.1,1.2-13.3,3.6l-32.6,18.7c-1.4,0.8-2.9,1.2-4.3,1.2
			c-1.8,0-3.6-0.6-5.2-1.8c-3.1-2.4-4.5-6-3.8-10.1l7-38.1c1.8-9.5-1.2-18.9-8-25.5l-27.1-26.5c-2.8-2.8-3.8-6.6-2.5-10.5
			c1.2-3.8,3.9-6.2,7.6-6.7l36.9-4.8c9.5-1.3,17.3-7.1,21.3-16l15.9-35.1C261,187.3,264,185.3,267.7,185.3 M267.7,176.3
			c-7.2,0-13.4,4.1-16.5,10.9l-15.8,35.1c-2.8,6-7.8,9.9-14.2,10.8l-36.9,4.8c-7.1,1-12.8,5.8-15,13c-2.3,7.2-0.4,14.6,4.9,19.7
			l27.2,26.5c4.7,4.6,6.6,10.8,5.4,17.4l-7,38.1c-1.4,7.4,1.3,14.5,7.2,18.9c3.2,2.4,6.9,3.7,10.7,3.7c3,0,6-0.8,8.9-2.4l32.6-18.7
			c2.8-1.6,5.8-2.4,8.8-2.4c3,0,6,0.8,8.8,2.4l32.6,18.7c2.8,1.6,5.8,2.4,8.9,2.4c3.7,0,7.4-1.2,10.7-3.7c5.9-4.4,8.5-11.5,7.2-18.9
			l-7-38.1c-1.2-6.6,0.7-12.8,5.4-17.4l27.1-26.5c5.3-5.2,7.1-12.5,4.9-19.7c-2.3-7.2-7.9-12-15.1-13l-36.9-4.8
			c-6.4-0.9-11.5-4.7-14.2-10.8l-15.8-35.1C281.1,180.4,274.9,176.3,267.7,176.3L267.7,176.3z"/>
	</g>
	<g>
		<path d="M698.2,185.3c3.7,0,6.6,2,8.2,5.6l15.8,35.1c4,9,11.8,14.8,21.3,16l36.9,4.8c3.7,0.5,6.4,2.8,7.6,6.7
			c1.2,3.9,0.3,7.8-2.5,10.5l-27.1,26.5c-6.8,6.7-9.8,16-8,25.5l7,38.1c0.7,4-0.6,7.7-3.8,10.1c-1.6,1.2-3.4,1.8-5.2,1.8
			c-1.4,0-2.9-0.4-4.3-1.2l-32.6-18.7c-4.2-2.4-8.7-3.6-13.3-3.6c-4.6,0-9.1,1.2-13.3,3.6l-32.6,18.7c-1.4,0.8-2.9,1.2-4.3,1.2
			c-1.8,0-3.6-0.6-5.2-1.8c-3.1-2.4-4.5-6-3.8-10.1l7-38.1c1.8-9.5-1.2-18.9-8-25.5L611,264.1c-2.8-2.8-3.8-6.6-2.5-10.5
			c1.2-3.8,3.9-6.2,7.6-6.7L653,242c9.5-1.3,17.3-7.1,21.3-16l15.9-35.1C691.6,187.3,694.5,185.3,698.2,185.3 M698.2,176.3
			c-7.2,0-13.4,4.1-16.5,10.9l-15.8,35.1c-2.8,6-7.8,9.9-14.2,10.8l-36.9,4.8c-7.1,1-12.8,5.8-15,13c-2.3,7.2-0.4,14.6,4.9,19.7
			l27.2,26.5c4.7,4.6,6.6,10.8,5.4,17.4l-7,38.1c-1.4,7.4,1.3,14.5,7.2,18.9c3.2,2.4,6.9,3.7,10.7,3.7c3,0,6-0.8,8.9-2.4l32.6-18.7
			c2.8-1.6,5.8-2.4,8.8-2.4s6,0.8,8.8,2.4l32.6,18.7c2.8,1.6,5.8,2.4,8.9,2.4c3.7,0,7.4-1.2,10.7-3.7c5.9-4.4,8.5-11.5,7.2-18.9
			l-7-38.1c-1.2-6.6,0.7-12.8,5.4-17.4l27.1-26.5c5.3-5.2,7.1-12.5,4.9-19.7c-2.3-7.2-7.9-12-15.1-13l-36.9-4.8
			c-6.4-0.9-11.5-4.7-14.2-10.8l-15.8-35.1C711.7,180.4,705.5,176.3,698.2,176.3L698.2,176.3z"/>
	</g>
	<g>
		<path d="M483.2,58.1c3.7,0,6.6,2,8.2,5.6l15.8,35.1c4,9,11.8,14.8,21.3,16l36.9,4.8c3.7,0.5,6.4,2.8,7.6,6.7
			c1.2,3.9,0.3,7.8-2.5,10.5l-27.1,26.5c-6.8,6.7-9.8,16-8,25.5l7,38.1c0.7,4-0.6,7.7-3.8,10.1c-1.6,1.2-3.4,1.8-5.2,1.8
			c-1.4,0-2.9-0.4-4.3-1.2L496.6,219c-4.2-2.4-8.7-3.6-13.3-3.6s-9.1,1.2-13.3,3.6l-32.6,18.7c-1.4,0.8-2.9,1.2-4.3,1.2
			c-1.8,0-3.6-0.6-5.2-1.8c-3.1-2.4-4.5-6-3.8-10.1l7-38.1c1.8-9.5-1.2-18.9-8-25.5L396,136.8c-2.8-2.8-3.8-6.6-2.5-10.5
			c1.2-3.8,3.9-6.2,7.6-6.7l36.9-4.8c9.5-1.3,17.3-7.1,21.3-16l15.9-35.1C476.6,60.1,479.5,58.1,483.2,58.1 M483.2,49
			c-7.2,0-13.4,4.1-16.5,10.9L450.9,95c-2.8,6-7.8,9.9-14.2,10.8l-36.9,4.8c-7.1,1-12.8,5.8-15,13c-2.3,7.2-0.4,14.6,4.9,19.7
			l27.2,26.5c4.7,4.6,6.6,10.8,5.4,17.4l-7,38.1c-1.4,7.4,1.3,14.5,7.2,18.9c3.2,2.4,6.9,3.7,10.7,3.7c3,0,6-0.8,8.9-2.4l32.6-18.7
			c2.8-1.6,5.8-2.4,8.8-2.4c3,0,6,0.8,8.8,2.4l32.6,18.7c2.8,1.6,5.8,2.4,8.9,2.4c3.7,0,7.4-1.2,10.7-3.7c5.9-4.4,8.5-11.5,7.2-18.9
			l-7-38.1c-1.2-6.6,0.7-12.8,5.4-17.4l27.1-26.5c5.3-5.2,7.1-12.5,4.9-19.7c-2.3-7.2-7.9-12-15.1-13l-36.9-4.8
			c-6.4-0.9-11.5-4.7-14.2-10.8L499.7,60C496.6,53.1,490.4,49,483.2,49L483.2,49z"/>
	</g>
	<g>
		<path d="M477,630.4c84.3,0,152.6-66.4,152.6-148.4S561.3,333.7,477,333.7s-152.6,66.4-152.6,148.4
			C324.4,564,392.8,630.4,477,630.4z M477,375.3c60.7,0,109.9,47.8,109.9,106.8c0,59-49.2,106.8-109.9,106.8
			s-109.9-47.8-109.9-106.8C367.1,423.1,416.4,375.3,477,375.3z M605.3,677.9c-6.4-3.9-13.6-6.8-20.9-6.8c-6.6,0-13.1,1.6-19.1,4.9
			c-26.7,14.8-57.3,22.6-88.3,22.6c-31.1,0-61.6-7.8-88.4-22.6c-5.9-3.3-12.5-4.9-19.1-4.9c-7.3,0-14.5,2-20.9,5.9
			c-62,38.6-107,127.7-107,209.5c0,21.4,17.6,40.6,39.2,40.6h392.2c21.7,0,39.2-19.1,39.2-40.6C712.3,804.7,667.4,716.5,605.3,677.9
			z M281,888.2c0-68,35.2-143.4,88.6-176.6c31.5,17.4,68.3,27.5,107.5,27.5s75.9-10.1,107.5-27.5c53.3,33.2,88.6,108.6,88.6,176.6
			H281z"/>
	</g>
</g>
</svg>
