<?xml version="1.0" encoding="utf-8"?>
<!-- Svg Vector Icons : http://www.onlinewebfonts.com/icon -->
<!DOCTYPE svg PUBLIC "-//W3C//DTD SVG 1.1//EN" "http://www.w3.org/Graphics/SVG/1.1/DTD/svg11.dtd">
<svg version="1.1" xmlns="http://www.w3.org/2000/svg" xmlns:xlink="http://www.w3.org/1999/xlink" x="0px" y="0px" viewBox="0 0 1000 1000" enable-background="new 0 0 1000 1000" xml:space="preserve">
<metadata> Svg Vector Icons : http://www.onlinewebfonts.com/icon </metadata>
<g><path d="M874.3,512.6c63.8,0,115.7-51.9,115.7-115.7c0-63.8-51.9-115.7-115.7-115.7c-63.8,0-115.7,51.9-115.7,115.7c0,11.1,1.6,21.8,4.5,32l-115,52c-22.4-51.6-71.4-89.1-129.5-95.3V264.4c56-8,99.2-56.3,99.2-114.5c0-63.8-51.9-115.7-115.7-115.7c-63.8,0-115.7,51.9-115.7,115.7c0,58,42.8,106.1,98.5,114.4v121.3c-59.7,6.3-109.7,45.6-131.2,99.4l-118.9-42.1c4.3-12.1,6.7-25.1,6.7-38.7c0-63.8-51.9-115.7-115.7-115.7C61.9,288.5,10,340.4,10,404.2c0,63.8,51.9,115.7,115.7,115.7c38.1,0,71.9-18.5,93-47l125.7,44.6c-1.5,8.7-2.3,17.6-2.3,26.8c0,38.9,14,74.5,37.2,102.3L265.5,748.4c-17.4-10.5-37.8-16.5-59.5-16.5c-63.8,0-115.7,51.9-115.7,115.7c0,63.8,51.9,115.7,115.7,115.7c63.8,0,115.7-51.9,115.7-115.7c0-29.8-11.3-57-29.9-77.5l111.8-100.1c27.1,21.2,61.1,33.8,98,33.8c35.6,0,68.4-11.7,95-31.5L705.4,780c-14.9,19.5-23.7,43.8-23.7,70.1c0,63.8,51.9,115.7,115.7,115.7c63.8,0,115.7-51.9,115.7-115.7c0-63.8-51.9-115.7-115.7-115.7c-25.3,0-48.8,8.2-67.9,22.1L621.5,649.4c24.7-28.1,39.7-64.9,39.7-105.2c0-10.6-1-20.9-3-31L777,459.5C797.7,491.4,833.5,512.6,874.3,512.6L874.3,512.6z M125.7,486.2c-45.2,0-82-36.8-82-82c0-45.2,36.8-82,82-82c45.2,0,82,36.8,82,82C207.8,449.4,171,486.2,125.7,486.2L125.7,486.2z M420.1,149.8c0-45.2,36.8-82,82-82c45.2,0,82,36.8,82,82c0,45.2-36.8,82-82,82C456.9,231.9,420.1,195.1,420.1,149.8L420.1,149.8z M206,929.6c-45.2,0-82-36.8-82-82c0-45.2,36.8-82,82-82c45.2,0,82,36.8,82,82C288.1,892.8,251.3,929.6,206,929.6L206,929.6z M879.4,850.2c0,45.2-36.8,82-82,82s-82-36.8-82-82c0-45.2,36.8-82,82-82S879.4,804.9,879.4,850.2L879.4,850.2z M501.7,670c-69.4,0-125.8-56.4-125.8-125.8c0-69.4,56.4-125.8,125.8-125.8c69.4,0,125.8,56.4,125.8,125.8C627.6,613.6,571.1,670,501.7,670L501.7,670z M874.3,314.8c45.2,0,82,36.8,82,82c0,45.2-36.8,82-82,82c-45.2,0-82-36.8-82-82S829,314.8,874.3,314.8L874.3,314.8z"/></g>
</svg>