<?xml version="1.0" encoding="utf-8"?>
<!-- Svg Vector Icons : http://www.onlinewebfonts.com/icon -->
<!DOCTYPE svg PUBLIC "-//W3C//DTD SVG 1.1//EN" "http://www.w3.org/Graphics/SVG/1.1/DTD/svg11.dtd">
<svg version="1.1" xmlns="http://www.w3.org/2000/svg" xmlns:xlink="http://www.w3.org/1999/xlink" x="0px" y="0px" viewBox="0 0 1000 1000" enable-background="new 0 0 1000 1000" xml:space="preserve">
<metadata> Svg Vector Icons : http://www.onlinewebfonts.com/icon </metadata>
<g><path d="M983.3,673.7h-19.8c11.5-5.3,19.5-16.8,19.5-30.3h0V153.6c0-18.5-15-33.4-33.5-33.5H464.4c-18.5,0-33.5,15-33.5,33.5v65.7c-3-11.5-13.3-20.1-25.7-20.1H218.1c-14.6,0-34,9.4-43.1,20.9L66.7,357.6c-9.1,11.5-16.5,32.9-16.5,47.6v228.6h-9.5c-17,0-30.8,13.8-30.8,30.8v64c0,17,13.8,30.8,30.8,30.8h53.3c10.6,3.2,22.8,3.8,31.7,0.7c-1.2,57.9,40.6,109.2,99.4,118.3c64.2,9.9,124.1-34.1,134-98.2c1.5-9.7,1.6-19.3,0.8-28.6c20.7,10.2,56.4,6.4,55.4-10.3c-0.1-0.8-0.3-1.6-0.4-2.5h180.7c-0.2,17.2,34.9,27.9,54.3,21.2c-1.2,57.9,40.6,109.2,99.4,118.3c64.1,9.9,124.1-34.1,134-98.2c1.5-9.7,1.6-19.3,0.8-28.6c20.7,10.2,56.4,6.4,55.3-10.3c-0.1-0.8-0.3-1.6-0.4-2.5h44.2c3.7,0,6.7-3,6.7-6.6v-51.9C990,676.7,987,673.7,983.3,673.7z M448.5,342.7h264.8v254.9c-34.3,11.2-64.4,32.8-85.7,61.7H464.4c-8.8,0-15.9-7.1-15.9-15.9V342.7z M949.5,659.3h-42.8c-26.5-35.9-66.7-61.7-114.3-68.6c-2.4-0.4-4.8-0.4-7.2-0.7V342.7h180.3v300.7C965.4,652.2,958.3,659.3,949.5,659.3z M965.4,153.6v117.1H785.1V137.8h164.4C958.3,137.8,965.4,144.9,965.4,153.6z M464.4,137.8h248.9v132.9H448.5V153.6C448.5,144.9,455.6,137.8,464.4,137.8z M358.5,501.7h-42.1c-9.2,0-16.7-1.1-16.7-9.1c0-8,7.5-19.9,16.7-19.9h42.1c9.2,0,16.7,11.9,16.7,19.9C375.3,500.6,367.8,501.7,358.5,501.7z M87,402.1c0-11,0.8-14.2,7.6-22.8l102-126.8c6.9-8.6,21.5-15.6,32.5-15.6h124.8c11,0,20,9,20,20v163.3c0,11-9,20-20,20H104.4c-11,0-17.4-5.8-17.4-16.7V402.1z M310.4,772.7c-5.7,37.2-40.5,62.6-77.7,56.9c-37.2-5.7-62.6-40.5-56.9-77.7c5.7-37.2,40.5-62.6,77.7-56.9C290.7,700.8,316.1,735.6,310.4,772.7z M834.6,772.7c-5.7,37.2-40.5,62.6-77.7,56.9c-37.1-5.7-62.6-40.5-56.9-77.7c5.7-37.2,40.5-62.6,77.7-56.9C814.9,700.8,840.3,735.6,834.6,772.7z"/></g>
</svg>