<?xml version="1.0" encoding="utf-8"?>
<!-- Svg Vector Icons : http://www.onlinewebfonts.com/icon -->
<!DOCTYPE svg PUBLIC "-//W3C//DTD SVG 1.1//EN" "http://www.w3.org/Graphics/SVG/1.1/DTD/svg11.dtd">
<svg version="1.1" xmlns="http://www.w3.org/2000/svg" xmlns:xlink="http://www.w3.org/1999/xlink" x="0px" y="0px" viewBox="0 0 1000 1000" enable-background="new 0 0 1000 1000" xml:space="preserve">
<metadata> Svg Vector Icons : http://www.onlinewebfonts.com/icon </metadata>
<g><path d="M990,397.3h-82.6v-72.5c0-61.3-68.9-111.1-153.7-111.1H163.7C79,213.6,10,263.5,10,324.8v350.5c0,61.3,68.9,111.1,153.7,111.1h590.1c84.7,0,153.7-49.8,153.7-111.1v-72.5H990L990,397.3L990,397.3z M845.9,675.2c0,36.7-41.3,66.6-92.1,66.6H163.7c-50.8,0-92.2-29.9-92.2-66.6l0-350.5c0-36.7,41.3-66.6,92.2-66.6h590.1c50.8,0,92.1,29.9,92.1,66.6V675.2L845.9,675.2z"/><path d="M495.3,255.5L262.4,554h181.7L421,744.5L654,446H472.2L495.3,255.5z"/></g>
</svg>