<?xml version="1.0" encoding="utf-8"?>
<!-- Generator: Adobe Illustrator 25.0.0, SVG Export Plug-In . SVG Version: 6.00 Build 0)  -->
<svg version="1.1" id="Layer_1" xmlns="http://www.w3.org/2000/svg" xmlns:xlink="http://www.w3.org/1999/xlink" x="0px" y="0px"
	 viewBox="0 0 1000 1000" style="enable-background:new 0 0 1000 1000;" xml:space="preserve">
<style type="text/css">
	.st0{fill:#FFFFFF;}
</style>
<g>
	<path d="M769.5,522.8l-1.9-1.9c-33-25.5-67.4-49.8-107-64.9C711,412.7,743,348.8,743,277.2c0-130-105.5-235.5-235.5-235.5
		c-130.1,0-235.5,105.4-235.5,235.5c0,71.6,32,135.5,82.4,178.7C193.6,517.7,79.4,673,79.3,855.4v0.1c0.1,23.6,10.4,41.1,33.9,41.1
		c23.7,0,25.4-17,25.5-40.6c0-188.9,113.6-367.4,368.8-363.2c77.4,1.3,168.2,31.1,223.6,77.2c15,12.5,18.3,12.7,25.1,14.6l3.3,0.5
		c23.7,0,29.6-6,29.6-29.6C789.1,541.9,779.4,530.7,769.5,522.8z M507.5,447.2c-121.7-0.3-180.1-87.2-180.1-169.9S394.2,98,507.8,98
		c131.9,0,180.4,97.7,180.4,180.4C688.1,361,611.3,450.3,507.5,447.2z"/>
	<path d="M918.8,602.2c-75.3-75.3-197.3-75.2-272.6,0s-75.3,197.3,0,272.6c75.2,75.2,197.3,75.2,272.6,0
		C994.1,799.5,994.1,677.4,918.8,602.2z M726.1,792.3l-2,19c0,3.4-1.8,6.3-4.8,7.9c0,0-0.1,0-0.1,0.1c-0.1,0-0.2,0.1-0.3,0.1
		c-0.1,0.1-0.2,0.1-0.3,0.1c-0.4,0.2-0.8,0.4-1.3,0.5c-0.1,0-0.1,0-0.2,0c-0.2,0.1-0.4,0.1-0.6,0.1c-0.3,0.1-0.5,0.1-0.7,0.1
		c-0.2,0-0.3,0-0.5,0.1c-0.1,0-0.1,0-0.2,0c-0.4,0-0.7,0.1-1.1,0.1l-22-1c-6,0-10.1-5-10.1-10c0-5.9,4.8-9.9,9.7-10l0,0
		c-12.3-17.9-18.7-38.9-18.7-61.1c1.2-59.1,49.2-108.2,109.3-108.2c13,0,25.1,2,37,6c5,2,8,8,6,13c-2,5-8,8-13,6c-10-3-20-5-30-5
		c-49.1,0-89.1,40-89.1,89.1c0,17.3,4.8,33.6,13.7,47.5c1.6-3.9,5.7-6.2,10.3-5.4C723.1,781.3,727.1,786.3,726.1,792.3z
		 M788.2,850.4c-13,0-26.1-2-39-7c-5-2-8-8-6-13c2-5,8-8,13-6c10.1,4,21,6,32,6c49.1,0,89.1-40,89.1-89.1c0-17.4-4.8-33.8-13.8-47.6
		c-1.6,3.3-5.4,5.6-9.1,5.6c-6,0-10.1-5-10.1-11l2-19c0-4.9,4.9-9.9,9.9-9.1l0,0c0.2,0,0.4,0,0.6,0h0.1h20.5c6,0,10.1,5,10.1,10.1
		c0,5.8-4.7,9.7-9.4,10c12.7,18.2,19.4,39.6,19.4,62.1C896.4,801.4,848.3,850.4,788.2,850.4z"/>
	<path d="M716.5,820.1c-0.3,0.1-0.5,0.1-0.7,0.1C716.1,820.2,716.4,820.2,716.5,820.1z"/>
	<path d="M715.3,820.3c0.1,0,0.1,0,0.2,0c-0.5,0-0.8,0.1-1.3,0.1C714.5,820.4,714.9,820.4,715.3,820.3z"/>
	<path d="M719.4,819.1c0.2-0.1,0.4-0.3,0.5-0.4C719.7,818.9,719.6,819,719.4,819.1z"/>
	<path class="st0" d="M719.2,819.2c-0.1,0-0.2,0.1-0.3,0.1C719,819.3,719.1,819.3,719.2,819.2z"/>
</g>
</svg>
