<?xml version="1.0" encoding="utf-8"?>
<!-- Svg Vector Icons : http://www.onlinewebfonts.com/icon -->
<!DOCTYPE svg PUBLIC "-//W3C//DTD SVG 1.1//EN" "http://www.w3.org/Graphics/SVG/1.1/DTD/svg11.dtd">
<svg version="1.1" xmlns="http://www.w3.org/2000/svg" xmlns:xlink="http://www.w3.org/1999/xlink" x="0px" y="0px" viewBox="0 0 1000 1000" enable-background="new 0 0 1000 1000" xml:space="preserve">
<metadata> Svg Vector Icons : http://www.onlinewebfonts.com/icon </metadata>
<g><g><g><path d="M524.7,762c-9,14-4.9,32.8,9.1,41.8l282.7,181.4c5,3.2,10.7,4.8,16.3,4.8c6.7,0,13.4-2.2,18.9-6.6c10.1-8.1,14-21.7,9.6-33.9L528.4,29.9C524.1,18,512.7,10,500,10c-12.7,0-24.1,8-28.4,19.9L138.8,949.5c-4.4,12.2-0.6,25.8,9.6,33.9c10.1,8.1,24.3,8.8,35.2,1.8l282.7-181.4c14-9,18.1-27.7,9.1-41.8c-9-14-27.7-18.1-41.8-9.1L226,886.1l274-757l274,757L566.5,752.9C552.4,743.9,533.7,748,524.7,762z"/></g></g><g></g><g></g><g></g><g></g><g></g><g></g><g></g><g></g><g></g><g></g><g></g><g></g><g></g><g></g><g></g></g>
</svg>